<mxfile host="Electron" agent="Mozilla/5.0 (Windows NT 10.0; Win64; x64) AppleWebKit/537.36 (KHTML, like Gecko) draw.io/25.0.2 Chrome/128.0.6613.186 Electron/32.2.5 Safari/537.36" version="25.0.2">
  <diagram name="Page-1" id="IkqaxWNW8tsi4yeUFmyX">
    <mxGraphModel dx="1014" dy="939" grid="1" gridSize="10" guides="1" tooltips="1" connect="1" arrows="1" fold="1" page="1" pageScale="1" pageWidth="827" pageHeight="1169" math="0" shadow="0">
      <root>
        <mxCell id="0" />
        <mxCell id="1" parent="0" />
        <mxCell id="-F8_LVCcevXXUQBI_2FJ-18" value="" style="rounded=0;whiteSpace=wrap;html=1;strokeWidth=2;" vertex="1" parent="1">
          <mxGeometry x="140" y="130" width="640" height="370" as="geometry" />
        </mxCell>
        <mxCell id="-F8_LVCcevXXUQBI_2FJ-16" value="" style="rounded=0;whiteSpace=wrap;html=1;" vertex="1" parent="1">
          <mxGeometry x="150" y="170" width="460" height="290" as="geometry" />
        </mxCell>
        <mxCell id="-F8_LVCcevXXUQBI_2FJ-7" value="" style="rounded=0;whiteSpace=wrap;html=1;" vertex="1" parent="1">
          <mxGeometry x="160" y="210" width="440" height="90" as="geometry" />
        </mxCell>
        <mxCell id="-F8_LVCcevXXUQBI_2FJ-8" value="Processing System" style="rounded=1;whiteSpace=wrap;html=1;" vertex="1" parent="1">
          <mxGeometry x="160" y="210" width="90" height="30" as="geometry" />
        </mxCell>
        <mxCell id="-F8_LVCcevXXUQBI_2FJ-9" value="" style="rounded=0;whiteSpace=wrap;html=1;" vertex="1" parent="1">
          <mxGeometry x="160" y="310" width="440" height="140" as="geometry" />
        </mxCell>
        <mxCell id="-F8_LVCcevXXUQBI_2FJ-10" value="Programming Logic" style="rounded=1;whiteSpace=wrap;html=1;" vertex="1" parent="1">
          <mxGeometry x="160" y="310" width="90" height="30" as="geometry" />
        </mxCell>
        <mxCell id="-F8_LVCcevXXUQBI_2FJ-11" value="" style="rounded=0;whiteSpace=wrap;html=1;" vertex="1" parent="1">
          <mxGeometry x="620" y="170" width="150" height="290" as="geometry" />
        </mxCell>
        <mxCell id="-F8_LVCcevXXUQBI_2FJ-12" value="External DDR" style="rounded=1;whiteSpace=wrap;html=1;" vertex="1" parent="1">
          <mxGeometry x="620" y="170" width="90" height="20" as="geometry" />
        </mxCell>
        <mxCell id="-F8_LVCcevXXUQBI_2FJ-3" value="GPU" style="rounded=1;whiteSpace=wrap;html=1;" vertex="1" parent="1">
          <mxGeometry x="480" y="355" width="90" height="50" as="geometry" />
        </mxCell>
        <mxCell id="-F8_LVCcevXXUQBI_2FJ-4" value="Display Controller" style="rounded=1;whiteSpace=wrap;html=1;" vertex="1" parent="1">
          <mxGeometry x="365" y="355" width="90" height="50" as="geometry" />
        </mxCell>
        <mxCell id="-F8_LVCcevXXUQBI_2FJ-5" value="Framebuffer(s)" style="rounded=1;whiteSpace=wrap;html=1;" vertex="1" parent="1">
          <mxGeometry x="650" y="355" width="90" height="50" as="geometry" />
        </mxCell>
        <mxCell id="-F8_LVCcevXXUQBI_2FJ-6" value="Command Lists" style="rounded=1;whiteSpace=wrap;html=1;" vertex="1" parent="1">
          <mxGeometry x="650" y="230" width="90" height="50" as="geometry" />
        </mxCell>
        <mxCell id="-F8_LVCcevXXUQBI_2FJ-17" value="Zynq" style="rounded=1;whiteSpace=wrap;html=1;" vertex="1" parent="1">
          <mxGeometry x="150" y="170" width="90" height="20" as="geometry" />
        </mxCell>
        <mxCell id="-F8_LVCcevXXUQBI_2FJ-19" value="Zybo" style="rounded=1;whiteSpace=wrap;html=1;" vertex="1" parent="1">
          <mxGeometry x="140" y="130" width="90" height="20" as="geometry" />
        </mxCell>
        <mxCell id="-F8_LVCcevXXUQBI_2FJ-20" value="" style="rounded=0;whiteSpace=wrap;html=1;" vertex="1" parent="1">
          <mxGeometry x="272.5" y="480" width="45" height="20" as="geometry" />
        </mxCell>
        <mxCell id="-F8_LVCcevXXUQBI_2FJ-21" value="Buttons" style="text;html=1;align=center;verticalAlign=middle;resizable=0;points=[];autosize=1;strokeColor=none;fillColor=none;" vertex="1" parent="1">
          <mxGeometry x="265" y="475" width="60" height="30" as="geometry" />
        </mxCell>
        <mxCell id="-F8_LVCcevXXUQBI_2FJ-22" value="" style="rounded=0;whiteSpace=wrap;html=1;" vertex="1" parent="1">
          <mxGeometry x="387.5" y="480" width="45" height="20" as="geometry" />
        </mxCell>
        <mxCell id="-F8_LVCcevXXUQBI_2FJ-23" value="HDMI" style="text;html=1;align=center;verticalAlign=middle;resizable=0;points=[];autosize=1;strokeColor=none;fillColor=none;" vertex="1" parent="1">
          <mxGeometry x="385" y="475" width="50" height="30" as="geometry" />
        </mxCell>
        <mxCell id="-F8_LVCcevXXUQBI_2FJ-24" value="User Input" style="edgeStyle=none;html=1;endArrow=open;endSize=12;verticalAlign=bottom;rounded=0;" edge="1" parent="1" source="-F8_LVCcevXXUQBI_2FJ-21">
          <mxGeometry width="160" relative="1" as="geometry">
            <mxPoint x="294.83" y="465" as="sourcePoint" />
            <mxPoint x="294.83" y="405" as="targetPoint" />
          </mxGeometry>
        </mxCell>
        <mxCell id="-F8_LVCcevXXUQBI_2FJ-25" value="GPIO" style="rounded=1;whiteSpace=wrap;html=1;" vertex="1" parent="1">
          <mxGeometry x="250" y="355" width="90" height="50" as="geometry" />
        </mxCell>
        <mxCell id="-F8_LVCcevXXUQBI_2FJ-28" value="Video Out" style="edgeStyle=none;html=1;endArrow=open;endSize=12;verticalAlign=bottom;rounded=0;" edge="1" parent="1">
          <mxGeometry width="160" relative="1" as="geometry">
            <mxPoint x="410.03000000000003" y="405" as="sourcePoint" />
            <mxPoint x="409.86" y="475" as="targetPoint" />
          </mxGeometry>
        </mxCell>
        <mxCell id="-F8_LVCcevXXUQBI_2FJ-29" value="Calculate Game State" style="rounded=1;whiteSpace=wrap;html=1;" vertex="1" parent="1">
          <mxGeometry x="360" y="230" width="90" height="50" as="geometry" />
        </mxCell>
        <mxCell id="-F8_LVCcevXXUQBI_2FJ-30" value="Create CL" style="rounded=1;whiteSpace=wrap;html=1;" vertex="1" parent="1">
          <mxGeometry x="480" y="230" width="90" height="50" as="geometry" />
        </mxCell>
        <mxCell id="-F8_LVCcevXXUQBI_2FJ-31" value="Read Input" style="edgeStyle=none;html=1;endArrow=open;endSize=12;verticalAlign=bottom;rounded=0;" edge="1" parent="1" target="-F8_LVCcevXXUQBI_2FJ-29">
          <mxGeometry width="160" relative="1" as="geometry">
            <mxPoint x="294.90999999999997" y="355" as="sourcePoint" />
            <mxPoint x="294.71000000000004" y="275" as="targetPoint" />
            <Array as="points">
              <mxPoint x="295" y="255" />
            </Array>
          </mxGeometry>
        </mxCell>
        <mxCell id="-F8_LVCcevXXUQBI_2FJ-32" value="" style="edgeStyle=none;html=1;endArrow=open;endSize=12;verticalAlign=bottom;rounded=0;entryX=0;entryY=0.5;entryDx=0;entryDy=0;" edge="1" parent="1" target="-F8_LVCcevXXUQBI_2FJ-30">
          <mxGeometry width="160" relative="1" as="geometry">
            <mxPoint x="450" y="254.8" as="sourcePoint" />
            <mxPoint x="504.83" y="254.8" as="targetPoint" />
          </mxGeometry>
        </mxCell>
        <mxCell id="-F8_LVCcevXXUQBI_2FJ-33" value="Write CL" style="edgeStyle=none;html=1;endArrow=open;endSize=12;verticalAlign=bottom;rounded=0;entryX=0;entryY=0.5;entryDx=0;entryDy=0;" edge="1" parent="1" target="-F8_LVCcevXXUQBI_2FJ-6">
          <mxGeometry width="160" relative="1" as="geometry">
            <mxPoint x="570" y="254.76" as="sourcePoint" />
            <mxPoint x="639.83" y="254.76" as="targetPoint" />
          </mxGeometry>
        </mxCell>
        <mxCell id="-F8_LVCcevXXUQBI_2FJ-34" value="Read FB" style="edgeStyle=none;html=1;endArrow=open;endSize=12;verticalAlign=bottom;rounded=0;" edge="1" parent="1">
          <mxGeometry width="160" relative="1" as="geometry">
            <mxPoint x="650" y="370" as="sourcePoint" />
            <mxPoint x="570" y="370" as="targetPoint" />
          </mxGeometry>
        </mxCell>
        <mxCell id="-F8_LVCcevXXUQBI_2FJ-35" value="Write FB" style="edgeStyle=none;html=1;endArrow=open;endSize=12;verticalAlign=bottom;rounded=0;" edge="1" parent="1">
          <mxGeometry width="160" relative="1" as="geometry">
            <mxPoint x="570" y="390" as="sourcePoint" />
            <mxPoint x="650" y="390" as="targetPoint" />
            <mxPoint as="offset" />
          </mxGeometry>
        </mxCell>
        <mxCell id="-F8_LVCcevXXUQBI_2FJ-36" value="Read FB" style="edgeStyle=none;html=1;endArrow=open;endSize=12;verticalAlign=bottom;rounded=0;exitX=0.5;exitY=1;exitDx=0;exitDy=0;entryX=0.971;entryY=0.989;entryDx=0;entryDy=0;entryPerimeter=0;" edge="1" parent="1" source="-F8_LVCcevXXUQBI_2FJ-5" target="-F8_LVCcevXXUQBI_2FJ-4">
          <mxGeometry width="160" relative="1" as="geometry">
            <mxPoint x="690" y="450" as="sourcePoint" />
            <mxPoint x="610" y="450" as="targetPoint" />
            <Array as="points">
              <mxPoint x="660" y="440" />
              <mxPoint x="490" y="440" />
            </Array>
          </mxGeometry>
        </mxCell>
        <mxCell id="-F8_LVCcevXXUQBI_2FJ-38" value="Read CL" style="edgeStyle=none;html=1;endArrow=open;endSize=12;verticalAlign=bottom;rounded=0;exitX=0.5;exitY=1;exitDx=0;exitDy=0;entryX=0.5;entryY=0;entryDx=0;entryDy=0;" edge="1" parent="1" source="-F8_LVCcevXXUQBI_2FJ-6" target="-F8_LVCcevXXUQBI_2FJ-3">
          <mxGeometry width="160" relative="1" as="geometry">
            <mxPoint x="700" y="330" as="sourcePoint" />
            <mxPoint x="620" y="330" as="targetPoint" />
            <Array as="points">
              <mxPoint x="695" y="330" />
              <mxPoint x="525" y="330" />
            </Array>
          </mxGeometry>
        </mxCell>
      </root>
    </mxGraphModel>
  </diagram>
</mxfile>
